# xmcd CD database file
#
# Track frame offsets:
#	182
#	14590
#	30877
#	45472
#	60160
#	79172
#	93652
#	108435
#	124440
#	138452
#
# Disc length: 2019 seconds
#
# Revision: 0
# Processed by: cddbd v1.5.2PL0 Copyright (c) Steve Scherf et al.
# Submitted via: CDex 1.51
#
DISCID=7c07e10a
DTITLE=Delirium Tremens - Hiru Aeroplano
DYEAR=1990
DGENRE=Euskal Herriko Rock Gogorra
TTITLE0=Batzuk
TTITLE1=Eutsi Hirean
TTITLE2=Kurrela Baten Aitormenak
TTITLE3=Osaba Sam
TTITLE4=Ametsetan
TTITLE5=I Have No Money
TTITLE6=Izen Gabeko Bata Zuri Bat
TTITLE7=Galduta Nabil
TTITLE8=Ez Da ezer Gertatzen
TTITLE9=Hiru Aeroplano
EXTD=YEAR: 1990
EXTT0=
EXTT1=
EXTT2=
EXTT3=
EXTT4=
EXTT5=
EXTT6=
EXTT7=
EXTT8=
EXTT9=
PLAYORDER=
